<svg width="800" height="800" viewBox="0 0 800 800" fill="none" xmlns="http://www.w3.org/2000/svg">
<path d="M400.5 38C600.703 38 763 200.297 763 400.5C763 600.703 600.703 763 400.5 763C200.297 763 38 600.703 38 400.5C38 200.297 200.297 38 400.5 38ZM400.5 114.777C243.306 114.777 115.874 242.7 115.874 400.5C115.874 504.923 215.086 460.587 298.39 510.432C340.971 535.91 347.328 686.223 400.5 686.223C557.694 686.223 685.126 558.3 685.126 400.5C685.126 242.7 557.694 114.777 400.5 114.777Z" fill="#1E1E1E"/>
</svg>
